<?xml version="1.0" encoding="UTF-8"?>
<svg xmlns="http://www.w3.org/2000/svg" xmlns:xlink="http://www.w3.org/1999/xlink" width="0" height="0">
    <!-- beak -->
    <symbol id="beak" width="47" height="53" viewBox="0 0 47 53" fill="none">
        <path d="M19.6783 52.5C12.1783 45 -4.28358 28 2.11561 11.5C9.67828 -8 34.8943 0.593121 46.1783 21.5L19.6783 52.5Z" 
        fill="currentcolor"/>
    </symbol>
    <!-- bodyBase -->
    <symbol id="bodyBase" width="188" height="269" viewBox="0 0 188 269" fill="none">
        <path d="M109.678 20.5C140.678 46.6778 149.178 73.5 165.178 116.5C175.178 139.667 193.378 190.9 186.178 210.5C178.978 230.1 160.845 257.667 152.678 269L134.178 266L115.178 244L92.5 246.5L84.6782 266L67.6782 262.5C45.5115 223 4.67823 179 0.678208 126C-3.32181 73 11.6782 65.5 11.6782 58C11.6782 50.5 -1.20654 28.3743 17.6782 10C36.1782 -8 87.1782 1.5 109.678 20.5Z" 
        fill="currentcolor"/>
    </symbol>
    <!-- tummy -->
    <symbol id="tummy" width="165" height="226" viewBox="0 0 165 226" fill="none">
        <path d="M7.19987 157.191C23.0599 191.165 63.3696 227.279 83.5 225C92.5036 223.981 99.8319 211.324 111.148 191.78C119.313 177.678 129.555 159.989 144 140.5C148.762 134.075 157.352 123.36 164.492 114.655C163.733 112.608 162.989 110.598 162.259 108.623C148.028 70.1495 138.741 45.0416 109.678 20.5C87.1783 1.5 36.1783 -8 17.6783 10C3.05008 24.2329 7.484 40.7166 10.2259 50.91C11.0237 53.8761 11.6783 56.3096 11.6783 58C11.6783 59.9508 10.6635 61.9016 9.23219 64.653C5.16063 72.4798 -2.28127 86.7855 0.67833 126C1.49003 136.755 3.81847 147.139 7.19987 157.191Z" 
        fill="currentcolor"/>
    </symbol>
    <!-- eyeA -->
    <symbol id="eyeA" width="26" height="32" viewBox="0 0 26 32" fill="none">
        <path d="M10.3324 0.0231635C-3.44767 0.800667 -4.46366 33.2881 13.5124 31.9604C32.9458 30.525 27.9992 -0.973635 10.3324 0.0231635Z" 
        fill="currentcolor"/>
    </symbol>
    <!-- eyeB -->
    <symbol id="eyeB" width="25" height="24" viewBox="0 0 25 24" fill="none">
        <path d="M6.99988 24H0.499878C0.999878 16.6667 0.499878 2.5 7.99988 1C15.4999 -0.500003 22.3332 11 24.9999 17L19.4999 20.5C17.3332 16 12.2999 7.3 9.49988 8.5C6.69988 9.7 6.66654 19.3333 6.99988 24Z" 
        fill="currentcolor"/>
    </symbol>
        <!-- eyeBorder -->
    <symbol id="eyeBorder" width="38" height="46" viewBox="0 0 38 46" fill="none">
        <path d="M15.1781 0.499995C-4.32186 1.58334 -5.75958 46.85 19.6781 45C47.1781 43 40.1781 -0.888903 15.1781 0.499995Z" 
        fill="currentcolor"/>
    </symbol>
    <!-- feet -->
    <symbol id="feet" width="146" height="65" viewBox="0 0 146 65" fill="none">
        <path d="M16.4 34.869C19.6 33.2689 27.4 32.5356 30.9 32.369L37.4 0L47.8 11.56L37.4 34.869C39.5667 34.0356 44.7 32.869 47.9 34.869C51.0999 36.869 53.5666 40.7023 54.4 42.369L47.9 47.369L37.4 38.869L30.9 64.369L19.4 61.869L24.9 42.369L7.40002 58.369L0.900024 50.869C4.73336 46.2023 13.2 36.469 16.4 34.869Z" 
        fill="currentcolor"/>
        <path d="M130.545 35.9282C127.375 34.3514 119.648 33.6287 116.18 33.4645L110.097 6L95.9 8.5L109.741 35.9282C107.595 35.1069 102.509 33.9572 99.3392 35.9282C96.1692 37.8991 93.7255 41.6768 92.9 43.3193L99.3392 48.2467L109.741 39.8701L116.18 65L127.573 62.5363L122.124 43.3193L139.461 59.0871L145.9 51.6959C142.102 47.097 133.715 37.505 130.545 35.9282Z" 
        fill="currentcolor"/>
    </symbol>
    <!-- detailB -->
    <symbol id="detailB" width="153" height="78" viewBox="0 0 153 78" fill="none">
        <path d="M44.4998 57.5C10.4998 54.3125 1.06982 35.6667 0.0698242 20C0.0698242 42 6.49985 70.871 44.4998 77C94.9555 85.138 137.9 28 152.9 0C136.4 18.5 93.9998 62.1406 44.4998 57.5Z" 
        fill="currentcolor"/>
    </symbol>
    <!-- detailA -->
    <symbol id="detailA" width="122" height="61" viewBox="0 0 122 61" fill="none">
        <path d="M4.64317 57.2693C20.0436 59.8944 35.7834 60.5 46.6783 60.5C53.7407 60.5 60.6736 58.9731 67.5446 57.4599C74.2941 55.9734 80.9839 54.5 87.6783 54.5C100.125 54.5 112.751 57.1803 121.63 59.4011C113.704 43.1544 107.089 29.9224 102.029 19.9608C79.2116 1.32187 29.0024 -7.82889 10.6782 10C-3.95 24.2329 0.483925 40.7166 3.22583 50.91C3.91511 53.4726 4.49747 55.6375 4.64317 57.2693Z" 
        fill="currentcolor"/>
    </symbol>
    <!-- headShapeA -->
    <symbol id="headShapeA" width="129" height="155" viewBox="0 0 129 155" fill="none">
        <path d="M0.0722656 104.065C2.4756 129.768 15.9069 152.14 42.1782 154C81.7472 156.801 93.6046 130.42 107.463 99.5865C113.392 86.3935 119.688 72.3855 128.678 59.5C120.731 43.2081 114.099 29.9426 109.029 19.9608C86.2116 1.32188 36.0024 -7.82889 17.6782 10C3.04997 24.2329 7.48389 40.7166 10.2258 50.91C11.0236 53.8761 11.6782 56.3096 11.6782 58C11.6782 59.9508 10.6634 61.9016 9.23208 64.653C6.03189 70.8047 0.749599 80.959 0.0722656 104.065Z" 
        fill="currentcolor"/>
    </symbol>
    <!-- headShapeB -->
    <symbol id="headShapeB" width="153" height="155" viewBox="0 0 153 155" fill="none">
        <path d="M0.0377197 105.441C3.07375 135.737 17.3253 151.899 47 154C89.4308 157.004 131.862 113.479 152.903 83.9928C142.696 58.6052 132.042 39.385 109.678 20.5C87.1782 1.5 36.1782 -8 17.6782 10C3.04996 24.2329 7.48388 40.7166 10.2258 50.91C11.0236 53.8761 11.6782 56.3096 11.6782 58C11.6782 59.9508 10.6634 61.9016 9.23207 64.653C5.96901 70.9256 0.54123 81.3595 0.0377197 105.441Z" 
        fill="currentcolor"/>
    </symbol>
    <!-- nose -->
    <symbol id="nose" width="45" height="30" viewBox="0 0 45 30" fill="none">
        <path d="M14.5 10C25 10 39.1782 22 44.1782 29.5C42 19.5 36 0.5 18 0.5C7.5 0.5 0.178223 13.8333 0.178223 19.5C2.01156 16 7 10 14.5 10Z" 
        fill="currentcolor"/>
    </symbol>
    <!-- tail -->
    <symbol id="tail" width="56" height="59" viewBox="0 0 56 59" fill="none">
        <path d="M55.6782 58.5L0.178223 33.5L21.6782 0.5L35.6782 11.5L55.6782 58.5Z" 
        fill="currentcolor"/>
    </symbol>
    <!-- wings -->
    <symbol id="wings" width="205" height="126" viewBox="0 0 205 126" fill="none">
        <path d="M3.49908 27.2108C1.24032 38.3962 -0.72914 54.2639 1.67826 66C5.27384 83.5285 22.2017 105.501 48.8301 115.575C48.1973 114.626 47.5619 113.674 46.9245 112.719C29.5786 86.7268 10.7906 58.5737 3.49908 27.2108Z" 
        fill="currentcolor"/>
        <path d="M146.178 77C137.678 51 157.733 12.8333 165.4 0C176.233 18.3333 196.478 55.8 201.678 73C207.725 93 201.512 116.5 197.178 125.5L196.757 125.259C179.269 115.267 153.962 100.808 146.178 77Z" 
        fill="currentcolor"/>
    </symbol>

</svg>
